<?xml version="1.0" encoding="iso-8859-1"?>
<!-- Generator: Adobe Illustrator 19.0.0, SVG Export Plug-In . SVG Version: 6.00 Build 0)  -->
<svg version="1.1" id="Capa_1" xmlns="http://www.w3.org/2000/svg" xmlns:xlink="http://www.w3.org/1999/xlink" x="0px" y="0px"
	 viewBox="0 0 512 512" style="enable-background:new 0 0 512 512;" xml:space="preserve">
<linearGradient id="SVGID_1_" gradientUnits="userSpaceOnUse" x1="256" y1="514" x2="256" y2="2" gradientTransform="matrix(1 0 0 -1 0 514)">
	<stop  offset="0" style="stop-color:#2AF598"/>
	<stop  offset="1" style="stop-color:#009EFD"/>
</linearGradient>
<path style="fill:url(#SVGID_1_);" d="M251.519,144h54.211v40H245.6l-40.023,270.504C202.501,482.859,179.391,512,145.729,512
	c-33.084,0-60-26.916-60-60h40c0,11.028,8.972,20,20,20c10.707,0,19.037-11.37,20.1-21.99l0.116-0.937L205.165,184h-55.436v-40
	h61.354l12.862-86.927C228.202,28.691,250.101,0,283.729,0c33.084,0,60,26.916,60,60h-40c0-11.028-8.972-20-20-20
	c-10.896,0-18.551,11.833-20.222,22.967L251.519,144z M426.271,248h-48.034l-25.988,39.085L334.923,248H291.17l34.827,78.569
	L270.523,410h48.034l26.653-40.085L362.979,410h43.753l-35.27-79.569L426.271,248z"/>
<g>
</g>
<g>
</g>
<g>
</g>
<g>
</g>
<g>
</g>
<g>
</g>
<g>
</g>
<g>
</g>
<g>
</g>
<g>
</g>
<g>
</g>
<g>
</g>
<g>
</g>
<g>
</g>
<g>
</g>
</svg>
