<?xml version="1.0" encoding="iso-8859-1"?>
<!-- Generator: Adobe Illustrator 16.0.0, SVG Export Plug-In . SVG Version: 6.00 Build 0)  -->
<!DOCTYPE svg PUBLIC "-//W3C//DTD SVG 1.1//EN" "http://www.w3.org/Graphics/SVG/1.1/DTD/svg11.dtd">
<svg version="1.1" id="Capa_1" xmlns="http://www.w3.org/2000/svg" xmlns:xlink="http://www.w3.org/1999/xlink" x="0px" y="0px"
	 width="31.672px" height="31.672px" viewBox="0 0 31.672 31.672" style="enable-background:new 0 0 31.672 31.672;"
	 xml:space="preserve">
<g>
	<g>
		<polygon points="4.784,21.073 3.564,18.547 3.564,30.192 16.091,30.22 16.091,28.999 4.784,28.976 		"/>
		<path d="M21.564,8.188v0.631h1.222v-2.41l-4.974-4.957H3.564V4.83h1.22V2.673h11.747v5.516L21.564,8.188L21.564,8.188z
			 M17.751,3.115l3.813,3.801v0.052h-3.813V3.115z"/>
		<path d="M29.872,9.853L19.13,9.846c-0.032-0.002-0.088-0.006-0.161-0.006c-0.898,0-1.949,0.538-1.949,2.055v18.317h14.652V11.894
			C31.671,10.542,30.494,9.967,29.872,9.853z M30.691,29.188H17.999V11.894c0-0.254,0-1.031,0.97-1.031
			c0.047,0,0.078,0.003,0.083,0.003l10.687,0.003c0.182,0.042,0.955,0.267,0.955,1.024v17.295H30.691z"/>
		<rect x="19.139" y="17.808" width="4.617" height="1.279"/>
		<rect x="24.925" y="17.808" width="4.619" height="1.279"/>
		<rect x="19.193" y="20.197" width="1.858" height="1.966"/>
		<rect x="21.939" y="20.197" width="1.86" height="1.966"/>
		<rect x="24.785" y="20.197" width="1.859" height="1.966"/>
		<rect x="27.7" y="20.197" width="1.858" height="1.966"/>
		<rect x="19.193" y="22.96" width="1.859" height="1.967"/>
		<rect x="21.939" y="22.96" width="1.861" height="1.967"/>
		<rect x="24.73" y="22.96" width="1.86" height="1.967"/>
		<rect x="27.646" y="22.96" width="1.858" height="1.967"/>
		<rect x="19.13" y="25.724" width="1.858" height="1.965"/>
		<rect x="21.878" y="25.724" width="1.86" height="1.965"/>
		<rect x="24.785" y="25.724" width="1.859" height="1.965"/>
		<rect x="27.646" y="25.724" width="1.857" height="1.965"/>
		<path d="M29.544,12.579H19.13v3.777h10.414V12.579z M24.798,15.457H24.27v-1.078h-0.416v-0.387
			c0.064,0.002,0.127-0.004,0.188-0.017c0.062-0.014,0.116-0.036,0.166-0.067c0.049-0.031,0.09-0.074,0.12-0.126
			c0.031-0.053,0.05-0.118,0.053-0.195h0.417V15.457z M26.881,15.457h-1.533c-0.006-0.092,0.004-0.175,0.026-0.253
			c0.022-0.077,0.056-0.147,0.101-0.21c0.037-0.053,0.08-0.104,0.127-0.15c0.049-0.046,0.102-0.089,0.156-0.129
			c0.055-0.042,0.112-0.079,0.172-0.117c0.059-0.038,0.117-0.073,0.172-0.108c0.021-0.015,0.047-0.031,0.075-0.049
			c0.029-0.017,0.054-0.037,0.079-0.059c0.023-0.022,0.044-0.046,0.061-0.073c0.018-0.027,0.024-0.058,0.024-0.091
			c0-0.086-0.021-0.146-0.062-0.179c-0.041-0.033-0.092-0.049-0.151-0.049c-0.103,0-0.172,0.037-0.212,0.105
			c-0.04,0.072-0.059,0.164-0.055,0.278h-0.479c-0.007-0.128,0.006-0.243,0.038-0.344c0.032-0.1,0.081-0.186,0.147-0.253
			c0.064-0.069,0.146-0.122,0.242-0.158s0.203-0.054,0.321-0.054c0.106,0,0.205,0.012,0.293,0.037
			c0.089,0.024,0.166,0.062,0.229,0.109c0.063,0.049,0.113,0.11,0.146,0.184c0.035,0.075,0.053,0.162,0.053,0.26
			c0,0.12-0.024,0.221-0.074,0.303c-0.049,0.083-0.111,0.154-0.188,0.216c-0.075,0.063-0.159,0.118-0.252,0.168
			c-0.091,0.05-0.179,0.102-0.262,0.156V15h0.802v0.457H26.881z M28.537,15.078c-0.023,0.068-0.062,0.13-0.119,0.191
			c-0.057,0.058-0.133,0.109-0.229,0.149c-0.097,0.04-0.217,0.061-0.36,0.061c-0.132,0-0.244-0.015-0.336-0.044
			c-0.093-0.031-0.167-0.068-0.226-0.114c-0.059-0.047-0.103-0.099-0.134-0.155c-0.032-0.057-0.055-0.112-0.069-0.167
			c-0.014-0.055-0.021-0.105-0.021-0.15c0-0.044,0-0.079,0.001-0.102h0.483c-0.004,0.101,0.02,0.175,0.068,0.224
			c0.023,0.03,0.053,0.052,0.09,0.064c0.037,0.013,0.078,0.019,0.123,0.019c0.072,0,0.129-0.016,0.172-0.047
			c0.043-0.031,0.063-0.086,0.063-0.163c0-0.041-0.007-0.075-0.021-0.1s-0.031-0.043-0.053-0.058
			c-0.022-0.015-0.048-0.025-0.076-0.029c-0.028-0.003-0.059-0.007-0.086-0.007c-0.039,0-0.067,0.001-0.088,0.005
			c-0.021,0.002-0.043,0.005-0.061,0.009v-0.365c0.018,0.001,0.039,0.004,0.062,0.006c0.022,0.003,0.051,0.005,0.086,0.005
			c0.025,0,0.055-0.002,0.082-0.005c0.028-0.004,0.055-0.012,0.078-0.024c0.023-0.013,0.043-0.03,0.059-0.052
			c0.015-0.022,0.021-0.052,0.021-0.087c0-0.029-0.007-0.055-0.021-0.076c-0.014-0.021-0.032-0.039-0.055-0.051
			c-0.021-0.013-0.047-0.021-0.074-0.028c-0.028-0.006-0.056-0.009-0.08-0.009c-0.034,0-0.066,0.005-0.098,0.015
			s-0.057,0.024-0.078,0.044c-0.022,0.021-0.039,0.043-0.053,0.073c-0.013,0.028-0.018,0.063-0.017,0.102h-0.478
			c0.002-0.111,0.021-0.207,0.061-0.288c0.039-0.081,0.093-0.147,0.16-0.201c0.068-0.052,0.146-0.091,0.233-0.117
			c0.089-0.026,0.183-0.04,0.283-0.04c0.129,0,0.237,0.017,0.324,0.053c0.088,0.036,0.157,0.077,0.211,0.127
			c0.053,0.051,0.091,0.103,0.114,0.159c0.023,0.056,0.035,0.103,0.035,0.142c0,0.099-0.013,0.175-0.037,0.228
			c-0.024,0.053-0.051,0.092-0.08,0.117s-0.057,0.04-0.082,0.045c-0.023,0.006-0.036,0.01-0.036,0.012v0.003
			c0,0.003,0.007,0.007,0.021,0.01c0.014,0.003,0.032,0.011,0.053,0.021c0.021,0.01,0.045,0.024,0.071,0.041
			c0.025,0.017,0.048,0.041,0.069,0.073c0.021,0.031,0.04,0.07,0.053,0.119c0.014,0.046,0.021,0.105,0.021,0.175
			C28.572,14.947,28.561,15.01,28.537,15.078z"/>
		<path d="M11.383,26.732l-0.055-5.937L5.945,9.575l0.008-0.003L4.223,5.98L0,8.013l1.73,3.592l0.006-0.002l5.359,11.129
			L11.383,26.732z M8.869,22.685l0.126-1.266l1.154,0.65l0.568-1.586l0.177,0.365l0.029,3.389l-1.046,0.504L7.47,22.507
			l-0.244-0.508L8.869,22.685z M1.806,9.75l-0.64-1.328l2.65-1.275l0.641,1.329L1.806,9.75z"/>
	</g>
</g>
<g>
</g>
<g>
</g>
<g>
</g>
<g>
</g>
<g>
</g>
<g>
</g>
<g>
</g>
<g>
</g>
<g>
</g>
<g>
</g>
<g>
</g>
<g>
</g>
<g>
</g>
<g>
</g>
<g>
</g>
</svg>
